<?xml version="1.0" encoding="UTF-8"?>
<svg id="Capa_2" data-name="Capa 2" xmlns="http://www.w3.org/2000/svg" xmlns:xlink="http://www.w3.org/1999/xlink" viewBox="0 0 300 100">
  <defs>
    <style>
      .cls-1, .cls-2 {
        fill: none;
      }

      .cls-3 {
        fill: #0070e5;
      }

      .cls-4 {
        fill: #0076f5;
      }

      .cls-5 {
        fill: #0064c7;
      }

      .cls-6 {
        fill: #0079fc;
      }

      .cls-7 {
        fill: #014c88;
      }

      .cls-8 {
        fill: #0072ea;
      }

      .cls-9 {
        fill: #0075f2;
      }

      .cls-10 {
        fill: #006ddf;
      }

      .cls-11 {
        fill: #006ddd;
      }

      .cls-12 {
        fill: #0069d3;
      }

      .cls-13 {
        fill: #0067ce;
      }

      .cls-14 {
        fill: #0065c8;
      }

      .cls-15 {
        fill: #0077f6;
      }

      .cls-16 {
        fill: #0075f1;
      }

      .cls-17 {
        fill: url(#linear-gradient);
      }

      .cls-18 {
        fill: #007afe;
      }

      .cls-19 {
        fill: #006fe3;
      }

      .cls-20 {
        fill: #006cdb;
      }

      .cls-21 {
        fill: #006ee0;
      }

      .cls-22 {
        fill: #d4d4d4;
      }

      .cls-23 {
        fill: #0078fb;
      }

      .cls-24 {
        isolation: isolate;
      }

      .cls-25 {
        fill: #0068d0;
      }

      .cls-26 {
        fill: #0068d1;
      }

      .cls-27 {
        fill: #0077f8;
      }

      .cls-28 {
        fill: #0066ca;
      }

      .cls-29 {
        fill: #0074ef;
      }

      .cls-30 {
        fill: #0075f3;
      }

      .cls-31 {
        clip-path: url(#clippath-1);
      }

      .cls-32 {
        fill: #0066cd;
      }

      .cls-33 {
        fill: #006bd8;
      }

      .cls-34 {
        fill: #0072e9;
      }

      .cls-35 {
        fill: #fff;
      }

      .cls-36 {
        fill: #0070e6;
      }

      .cls-37 {
        fill: #006ad6;
      }

      .cls-38 {
        fill: #006ee1;
      }

      .cls-39 {
        fill: #006fe2;
      }

      .cls-40 {
        fill: #0070e4;
      }

      .cls-41 {
        fill: #0064c6;
      }

      .cls-42 {
        fill: #0079fd;
      }

      .cls-43 {
        fill: #0065c9;
      }

      .cls-44 {
        fill: #0076f4;
      }

      .cls-45 {
        fill: #0073ec;
      }

      .cls-46 {
        fill: #0067cf;
      }

      .cls-47 {
        fill: #0073ee;
      }

      .cls-2 {
        stroke: #d4d4d4;
        stroke-linecap: square;
        stroke-width: 3.54px;
      }

      .cls-2, .cls-48, .cls-49 {
        stroke-miterlimit: 10;
      }

      .cls-50 {
        fill: #f5f5f5;
      }

      .cls-51 {
        fill: #0069d4;
      }

      .cls-52 {
        fill: #006cda;
      }

      .cls-53 {
        fill: #0077f7;
      }

      .cls-54 {
        fill: #0078fa;
      }

      .cls-55 {
        fill: #0071e8;
      }

      .cls-56 {
        fill: #0069d2;
      }

      .cls-48 {
        fill: url(#New_Gradient_Swatch_11-2);
      }

      .cls-48, .cls-49 {
        stroke: #fff;
        stroke-width: 7.32px;
      }

      .cls-57 {
        fill: #0066cb;
      }

      .cls-58 {
        fill: #0074f0;
      }

      .cls-59 {
        fill: #006ddc;
      }

      .cls-60 {
        fill: #006bd7;
      }

      .cls-61 {
        clip-path: url(#clippath);
      }

      .cls-62 {
        fill: #0072eb;
      }

      .cls-63 {
        fill: #006bd9;
      }

      .cls-64 {
        fill: #0064c5;
      }

      .cls-49 {
        fill: url(#New_Gradient_Swatch_11);
      }

      .cls-65 {
        fill: #007aff;
      }

      .cls-66 {
        fill: #e8e8e8;
      }

      .cls-67 {
        fill: #0071e7;
      }

      .cls-68 {
        fill: #006ad5;
      }
    </style>
    <clipPath id="clippath">
      <rect class="cls-1" x="63.74" y="10.44" width="79.12" height="79.12"/>
    </clipPath>
    <linearGradient id="linear-gradient" x1="106.96" y1="66.7" x2="106.96" y2="37.92" gradientUnits="userSpaceOnUse">
      <stop offset="0" stop-color="#ff0a33"/>
      <stop offset=".28" stop-color="#fa2553"/>
      <stop offset=".9" stop-color="#ee6ca6"/>
      <stop offset="1" stop-color="#ed79b5"/>
    </linearGradient>
    <linearGradient id="New_Gradient_Swatch_11" data-name="New Gradient Swatch 11" x1="106.96" y1="40.66" x2="106.96" y2="40.66" gradientUnits="userSpaceOnUse">
      <stop offset="0" stop-color="#ed79b5"/>
      <stop offset="1" stop-color="#e5cdeb"/>
    </linearGradient>
    <linearGradient id="New_Gradient_Swatch_11-2" data-name="New Gradient Swatch 11" x1="-1469.53" y1="-8797.57" x2="-1469.53" y2="-8797.57" gradientTransform="translate(-8690.61 1510.19) rotate(90)" xlink:href="#New_Gradient_Swatch_11"/>
    <clipPath id="clippath-1">
      <circle class="cls-1" cx="100.14" cy="33.84" r="10.42"/>
    </clipPath>
  </defs>
  <g id="Capa_3" data-name="Capa 3">
    <g>
      <rect class="cls-1" width="300" height="100"/>
      <g>
        <g id="Buscador" class="cls-24">
          <g class="cls-24">
            <path class="cls-7" d="M169.03,40.71h7.95l6.81,21.45h-6.51l-1.14-3.99h-7.11l-1.14,3.99h-5.73l6.87-21.45ZM170.23,53.94h4.71l-2.34-8.25-2.37,8.25Z"/>
            <path class="cls-7" d="M185.89,57.12v-6.99h-1.89v-3.66h1.89v-3.27h5.37v3.27h3.09v3.66h-3.09v6.48c0,1.14.57,1.65,1.59,1.65.6,0,1.05-.09,1.53-.27v4.08c-.69.18-1.71.45-2.97.45-3.54,0-5.52-1.71-5.52-5.4Z"/>
            <path class="cls-7" d="M196.99,39.57h5.34v22.59h-5.34v-22.59Z"/>
            <path class="cls-7" d="M204.76,57.81c0-3.69,3.12-5.13,8.34-5.13h1.5v-.36c0-1.5-.36-2.49-2.07-2.49-1.47,0-2.01.87-2.13,1.86h-5.04c.24-3.78,3.21-5.64,7.5-5.64s7.08,1.77,7.08,5.94v10.17h-5.22v-1.83c-.75,1.14-2.13,2.19-4.65,2.19-2.82,0-5.31-1.38-5.31-4.71ZM214.6,56.67v-.96h-1.41c-2.16,0-3.12.42-3.12,1.71,0,.9.6,1.47,1.86,1.47,1.53,0,2.67-.87,2.67-2.22Z"/>
            <path class="cls-7" d="M221.95,57.18h4.95c.18,1.14.69,1.77,2.22,1.77,1.32,0,1.92-.51,1.92-1.29s-.75-1.11-2.91-1.41c-4.2-.54-5.97-1.77-5.97-5.04,0-3.48,3.09-5.16,6.72-5.16,3.87,0,6.57,1.32,6.93,5.07h-4.86c-.21-1.05-.78-1.56-2.01-1.56s-1.77.51-1.77,1.23.72,1.05,2.64,1.29c4.35.54,6.45,1.68,6.45,5.04,0,3.72-2.76,5.4-7.11,5.4s-7.08-1.86-7.2-5.34Z"/>
          </g>
        </g>
        <g class="cls-61">
          <g>
            <g>
              <g>
                <rect class="cls-66" x="83.08" y="23.85" width="47.26" height="59.12"/>
                <g>
                  <g>
                    <line class="cls-2" x1="102.82" y1="59.18" x2="120.95" y2="59.18"/>
                    <line class="cls-2" x1="102.82" y1="62.19" x2="115.14" y2="62.19"/>
                  </g>
                  <g>
                    <line class="cls-2" x1="102.82" y1="70.02" x2="120.95" y2="70.02"/>
                    <line class="cls-2" x1="102.82" y1="73.02" x2="117.44" y2="73.02"/>
                  </g>
                </g>
              </g>
              <g>
                <circle class="cls-17" cx="106.96" cy="40.66" r="10.42"/>
                <g>
                  <line class="cls-49" x1="100.14" y1="40.66" x2="113.77" y2="40.66"/>
                  <line class="cls-48" x1="106.96" y1="33.84" x2="106.96" y2="47.48"/>
                </g>
              </g>
            </g>
            <g>
              <g>
                <rect class="cls-50" x="76.26" y="17.03" width="47.26" height="59.12"/>
                <g>
                  <g>
                    <path class="cls-22" d="M109.26,53.06h-18.13c-.38,0-.7-.31-.7-.7s.31-.7.7-.7h18.13c.38,0,.7.31.7.7s-.31.7-.7.7Z"/>
                    <path class="cls-22" d="M103.46,56.06h-12.33c-.38,0-.7-.31-.7-.7s.31-.7.7-.7h12.33c.38,0,.7.31.7.7s-.31.7-.7.7Z"/>
                  </g>
                  <g>
                    <path class="cls-22" d="M109.26,63.9h-18.13c-.38,0-.7-.31-.7-.7s.31-.7.7-.7h18.13c.38,0,.7.31.7.7s-.31.7-.7.7Z"/>
                    <path class="cls-22" d="M105.75,66.9h-14.62c-.38,0-.7-.31-.7-.7s.31-.7.7-.7h14.62c.38,0,.7.31.7.7s-.31.7-.7.7Z"/>
                  </g>
                </g>
              </g>
              <g>
                <g class="cls-31">
                  <rect class="cls-64" x="89.72" y="44.16" width="20.84" height=".1"/>
                  <rect class="cls-41" x="89.72" y="43.92" width="20.84" height=".24"/>
                  <rect class="cls-5" x="89.72" y="43.68" width="20.84" height=".24"/>
                  <rect class="cls-14" x="89.72" y="43.44" width="20.84" height=".24"/>
                  <rect class="cls-43" x="89.72" y="43.2" width="20.84" height=".24"/>
                  <rect class="cls-28" x="89.72" y="42.95" width="20.84" height=".24"/>
                  <rect class="cls-57" x="89.72" y="42.71" width="20.84" height=".24"/>
                  <rect class="cls-32" x="89.72" y="42.47" width="20.84" height=".24"/>
                  <rect class="cls-13" x="89.72" y="42.23" width="20.84" height=".24"/>
                  <rect class="cls-46" x="89.72" y="41.99" width="20.84" height=".24"/>
                  <rect class="cls-25" x="89.72" y="41.74" width="20.84" height=".24"/>
                  <rect class="cls-26" x="89.72" y="41.5" width="20.84" height=".24"/>
                  <rect class="cls-56" x="89.72" y="41.26" width="20.84" height=".24"/>
                  <rect class="cls-12" x="89.72" y="41.02" width="20.84" height=".24"/>
                  <rect class="cls-51" x="89.72" y="40.78" width="20.84" height=".24"/>
                  <rect class="cls-68" x="89.72" y="40.53" width="20.84" height=".24"/>
                  <rect class="cls-37" x="89.72" y="40.29" width="20.84" height=".24"/>
                  <rect class="cls-60" x="89.72" y="40.05" width="20.84" height=".24"/>
                  <rect class="cls-33" x="89.72" y="39.81" width="20.84" height=".24"/>
                  <rect class="cls-63" x="89.72" y="39.57" width="20.84" height=".24"/>
                  <rect class="cls-52" x="89.72" y="39.32" width="20.84" height=".24"/>
                  <rect class="cls-20" x="89.72" y="39.08" width="20.84" height=".24"/>
                  <rect class="cls-59" x="89.72" y="38.84" width="20.84" height=".24"/>
                  <rect class="cls-11" x="89.72" y="38.6" width="20.84" height=".24"/>
                  <rect class="cls-10" x="89.72" y="38.36" width="20.84" height=".24"/>
                  <rect class="cls-21" x="89.72" y="38.12" width="20.84" height=".24"/>
                  <rect class="cls-38" x="89.72" y="37.87" width="20.84" height=".24"/>
                  <rect class="cls-39" x="89.72" y="37.63" width="20.84" height=".24"/>
                  <rect class="cls-19" x="89.72" y="37.39" width="20.84" height=".24"/>
                  <rect class="cls-40" x="89.72" y="37.15" width="20.84" height=".24"/>
                  <rect class="cls-3" x="89.72" y="36.91" width="20.84" height=".24"/>
                  <rect class="cls-36" x="89.72" y="36.66" width="20.84" height=".24"/>
                  <rect class="cls-67" x="89.72" y="36.42" width="20.84" height=".24"/>
                  <rect class="cls-55" x="89.72" y="36.18" width="20.84" height=".24"/>
                  <rect class="cls-34" x="89.72" y="35.94" width="20.84" height=".24"/>
                  <rect class="cls-8" x="89.72" y="35.7" width="20.84" height=".24"/>
                  <rect class="cls-62" x="89.72" y="35.45" width="20.84" height=".24"/>
                  <rect class="cls-45" x="89.72" y="35.21" width="20.84" height=".24"/>
                  <rect class="cls-47" x="89.72" y="34.97" width="20.84" height=".24"/>
                  <rect class="cls-29" x="89.72" y="34.73" width="20.84" height=".24"/>
                  <rect class="cls-58" x="89.72" y="34.49" width="20.84" height=".24"/>
                  <rect class="cls-16" x="89.72" y="34.25" width="20.84" height=".24"/>
                  <rect class="cls-9" x="89.72" y="34" width="20.84" height=".24"/>
                  <rect class="cls-30" x="89.72" y="33.76" width="20.84" height=".24"/>
                  <rect class="cls-44" x="89.72" y="33.52" width="20.84" height=".24"/>
                  <rect class="cls-4" x="89.72" y="33.28" width="20.84" height=".24"/>
                  <rect class="cls-15" x="89.72" y="33.04" width="20.84" height=".24"/>
                  <rect class="cls-53" x="89.72" y="32.79" width="20.84" height=".24"/>
                  <rect class="cls-27" x="89.72" y="32.55" width="20.84" height=".24"/>
                  <rect class="cls-54" x="89.72" y="32.31" width="20.84" height=".24"/>
                  <rect class="cls-23" x="89.72" y="32.07" width="20.84" height=".24"/>
                  <rect class="cls-6" x="89.72" y="31.83" width="20.84" height=".24"/>
                  <rect class="cls-42" x="89.72" y="31.58" width="20.84" height=".24"/>
                  <rect class="cls-18" x="89.72" y="31.34" width="20.84" height=".24"/>
                  <rect class="cls-65" x="89.72" y="31.1" width="20.84" height=".24"/>
                  <rect class="cls-65" x="89.72" y="23.42" width="20.84" height="7.68"/>
                </g>
                <path class="cls-35" d="M106.96,32.45h-5.43v-5.43c0-.77-.62-1.39-1.39-1.39s-1.39.62-1.39,1.39v5.43h-5.43c-.77,0-1.39.62-1.39,1.39s.62,1.39,1.39,1.39h5.43v5.43c0,.77.62,1.39,1.39,1.39s1.39-.62,1.39-1.39v-5.43h5.43c.77,0,1.39-.62,1.39-1.39s-.62-1.39-1.39-1.39Z"/>
              </g>
            </g>
          </g>
        </g>
      </g>
    </g>
  </g>
</svg>