<?xml version="1.0" encoding="utf-8"?>
<!-- Generator: Adobe Illustrator 27.7.0, SVG Export Plug-In . SVG Version: 6.00 Build 0)  -->
<svg version="1.1" id="Capa_1" xmlns="http://www.w3.org/2000/svg" xmlns:xlink="http://www.w3.org/1999/xlink" x="0px" y="0px"
	 viewBox="0 0 15 24" style="enable-background:new 0 0 15 24;" xml:space="preserve">
<style type="text/css">
	.st0{fill:#0062C3;}
	.st1{fill:#B80D05;}
</style>
<g>
	<g id="Capa_1-2">
		<path id="pill" class="st0" d="M7.8,23.6c-0.3-0.3-0.6-0.7-0.8-1.1c-0.3,0.1-0.7,0.1-1,0.1c-2.5,0-4.5-2-4.5-4.5V5.9
			c0-2.5,2-4.6,4.6-4.6l0,0c0.3,0,0.5,0.2,0.5,0.5S6.4,2.3,6.1,2.3c-1.9,0-3.5,1.6-3.5,3.5l0,0V12h7.9v3.4c0.3,0,0.5-0.1,0.8-0.1
			c0.2,0,0.4,0,0.6,0V6c0-3.3-2.6-6-5.9-6l0,0C2.6,0,0,2.7,0,6l0,0v12.1C0,21.4,2.6,24,5.9,24C6.6,24,7.2,23.9,7.8,23.6L7.8,23.6z"
			/>
		<path id="plus" class="st1" d="M13.9,17.5C12.4,16,10,16,8.5,17.4S7,21.3,8.4,22.8c1.5,1.5,3.9,1.5,5.4,0.1
			c0.7-0.7,1.2-1.7,1.2-2.7C15,19.1,14.6,18.2,13.9,17.5z M13.1,20.7h-1.4v1.4c0,0.3-0.3,0.6-0.6,0.6l0,0c-0.1,0-0.3-0.1-0.4-0.2
			c-0.1-0.1-0.2-0.3-0.2-0.4v-1.4H9.3c-0.2,0-0.3-0.1-0.4-0.2c-0.1-0.1-0.2-0.2-0.2-0.4c0-0.3,0.3-0.6,0.6-0.6l0,0h1.4v-1.4
			c0-0.3,0.3-0.5,0.6-0.5s0.5,0.2,0.5,0.5v1.4h1.4c0.1,0,0.3,0.1,0.4,0.2c0.1,0.1,0.2,0.2,0.2,0.4C13.7,20.5,13.4,20.7,13.1,20.7z"
			/>
	</g>
</g>
</svg>
